<svg width="140" height="40" viewBox="0 0 140 40" fill="none" xmlns="http://www.w3.org/2000/svg">
<path d="M8.50146 23.8636L16.2915 31.5798L9.56717 38.2404C8.9786 38.8234 8.02433 38.8234 7.43576 38.2404L1.77718 32.6354C1.18861 32.0524 1.18861 31.1072 1.77718 30.5242L8.50146 23.8636Z" stroke="#DD6B20"/>
<path d="M8.50148 23.8611L16.2915 31.5773L23.0158 24.9167C23.6043 24.3337 23.6043 23.3885 23.0158 22.8055L16.2915 16.1449L8.50148 23.8611Z" stroke="#DD6B20"/>
<path d="M16.2939 16.1361L8.50395 8.41993L15.2282 1.75936C15.8168 1.17636 16.7711 1.17636 17.3596 1.75935L23.0182 7.36433C23.6068 7.94733 23.6068 8.89254 23.0182 9.47553L16.2939 16.1361Z" stroke="#DD6B20"/>
<path d="M16.2905 16.1443L8.50052 8.42811L1.77622 15.0887C1.18765 15.6717 1.18765 16.6169 1.77622 17.1999L8.50052 23.8605L16.2905 16.1443Z" stroke="#DD6B20"/>
<path d="M35.1064 16.1841C36.8877 16.1841 38.2783 16.5708 39.2783 17.3442C40.2861 18.1099 40.79 19.2622 40.79 20.8013C40.79 21.5591 40.5479 22.2388 40.0635 22.8403C39.5869 23.4341 38.9541 23.8755 38.165 24.1646C39.1885 24.3833 39.9971 24.8872 40.5908 25.6763C41.1846 26.4653 41.4814 27.3833 41.4814 28.4302C41.4814 29.9927 40.9736 31.188 39.958 32.0161C38.9424 32.8364 37.5674 33.2466 35.833 33.2466H27.6299V31.77L29.54 31.4419V18.0005L27.6299 17.6724V16.1841H29.54H35.1064ZM31.8486 25.2427V31.4419H35.833C36.8877 31.4419 37.7041 31.1841 38.2822 30.6685C38.8682 30.145 39.1611 29.4067 39.1611 28.4536C39.1611 27.4536 38.915 26.6685 38.4229 26.0981C37.9385 25.5278 37.1924 25.2427 36.1846 25.2427H31.8486ZM31.8486 23.438H35.7041C36.5322 23.4146 37.2002 23.1685 37.708 22.6997C38.2236 22.231 38.4814 21.5825 38.4814 20.7544C38.4814 19.8325 38.1924 19.145 37.6143 18.6919C37.0361 18.231 36.2002 18.0005 35.1064 18.0005H31.8486V23.438ZM43.2979 16.4536V14.9653H47.5166V31.4419L49.4268 31.77V33.2466H43.2979V31.77L45.208 31.4419V16.7817L43.2979 16.4536ZM51.1846 31.77L53.0947 31.4419V22.3833L51.1846 22.0552V20.5669H55.4033V31.4419L57.3135 31.77V33.2466H51.1846V31.77ZM55.4033 17.3208H53.0947V14.9653H55.4033V17.3208ZM63.1143 17.5083V20.5669H65.5166V22.2778H63.1143V29.9771C63.1143 30.5708 63.2354 30.9888 63.4775 31.231C63.7275 31.4731 64.0557 31.5942 64.4619 31.5942C64.665 31.5942 64.8916 31.5786 65.1416 31.5474C65.3994 31.5083 65.6143 31.4692 65.7861 31.4302L66.1025 33.0122C65.8838 33.1528 65.5635 33.2661 65.1416 33.3521C64.7197 33.4458 64.2979 33.4927 63.876 33.4927C62.9385 33.4927 62.1924 33.2114 61.6377 32.6489C61.083 32.0786 60.8057 31.188 60.8057 29.9771V22.2778H58.8018V20.5669H60.8057V17.5083H63.1143ZM70.8838 31.4419H76.0635L76.251 29.4849H78.208V33.2466H68.1416V31.6294L74.9971 22.395H70.3564L70.1807 24.3403H68.2119V20.5669H77.8213V22.1372L70.8838 31.4419Z" fill="#232323"/>
<path d="M87.8408 16.1841C89.6221 16.1841 91.0127 16.5708 92.0127 17.3442C93.0205 18.1099 93.5244 19.2622 93.5244 20.8013C93.5244 21.5591 93.2822 22.2388 92.7979 22.8403C92.3213 23.4341 91.6885 23.8755 90.8994 24.1646C91.9229 24.3833 92.7314 24.8872 93.3252 25.6763C93.9189 26.4653 94.2158 27.3833 94.2158 28.4302C94.2158 29.9927 93.708 31.188 92.6924 32.0161C91.6768 32.8364 90.3018 33.2466 88.5674 33.2466H80.3643V31.77L82.2744 31.4419V18.0005L80.3643 17.6724V16.1841H82.2744H87.8408ZM84.583 25.2427V31.4419H88.5674C89.6221 31.4419 90.4385 31.1841 91.0166 30.6685C91.6025 30.145 91.8955 29.4067 91.8955 28.4536C91.8955 27.4536 91.6494 26.6685 91.1572 26.0981C90.6729 25.5278 89.9268 25.2427 88.9189 25.2427H84.583ZM84.583 23.438H88.4385C89.2666 23.4146 89.9346 23.1685 90.4424 22.6997C90.958 22.231 91.2158 21.5825 91.2158 20.7544C91.2158 19.8325 90.9268 19.145 90.3486 18.6919C89.7705 18.231 88.9346 18.0005 87.8408 18.0005H84.583V23.438ZM105.419 31.3716C105.021 32.0513 104.505 32.5747 103.872 32.9419C103.247 33.3091 102.524 33.4927 101.704 33.4927C100.329 33.4927 99.2549 33.0513 98.4814 32.1685C97.708 31.2856 97.3213 29.9106 97.3213 28.0435V22.3833L95.8682 22.0552V20.5669H97.3213H99.6299V28.0669C99.6299 29.4185 99.8291 30.3481 100.228 30.856C100.626 31.3638 101.247 31.6177 102.091 31.6177C102.911 31.6177 103.587 31.4536 104.118 31.1255C104.657 30.7896 105.063 30.3169 105.337 29.7075V22.3833L103.638 22.0552V20.5669H105.337H107.646V31.4419L109.099 31.77V33.2466H105.571L105.419 31.3716ZM110.927 31.77L112.837 31.4419V22.3833L110.927 22.0552V20.5669H115.146V31.4419L117.056 31.77V33.2466H110.927V31.77ZM115.146 17.3208H112.837V14.9653H115.146V17.3208ZM118.509 16.4536V14.9653H122.728V31.4419L124.638 31.77V33.2466H118.509V31.77L120.419 31.4419V16.7817L118.509 16.4536ZM134.938 31.7349C134.524 32.313 134.017 32.7505 133.415 33.0474C132.821 33.3442 132.13 33.4927 131.341 33.4927C129.794 33.4927 128.583 32.9341 127.708 31.8169C126.841 30.6919 126.407 29.2153 126.407 27.3872V27.1411C126.407 25.1021 126.841 23.4575 127.708 22.2075C128.583 20.9575 129.802 20.3325 131.364 20.3325C132.114 20.3325 132.774 20.4731 133.345 20.7544C133.923 21.0278 134.415 21.4263 134.821 21.9497V16.7817L132.911 16.4536V14.9653H134.821H137.13V31.4419L139.04 31.77V33.2466H135.126L134.938 31.7349ZM128.716 27.3872C128.716 28.6606 128.978 29.6841 129.501 30.4575C130.024 31.231 130.833 31.6177 131.927 31.6177C132.614 31.6177 133.192 31.4614 133.661 31.1489C134.13 30.8364 134.517 30.395 134.821 29.8247V23.9419C134.524 23.4106 134.138 22.9888 133.661 22.6763C133.185 22.3638 132.614 22.2075 131.95 22.2075C130.849 22.2075 130.032 22.6646 129.501 23.5786C128.978 24.4927 128.716 25.6802 128.716 27.1411V27.3872Z" fill="#DD6B20"/>
</svg>
